<svg width="914" height="419" viewBox="0 0 914 419" fill="none" xmlns="http://www.w3.org/2000/svg">
<path d="M18.1399 229C166.938 122.155 289.14 131.871 406.14 210C523.14 288.129 832.111 262.217 855.64 1C698.076 249.267 378.738 73.6015 257.64 49.5C136.542 25.3985 60.2161 128.118 18.1399 229Z" fill="#002747" stroke="#025EAA"/>
<path d="M358 167.566H476.345V338H358V167.566Z" fill="#EEEEEE"/>
<path d="M484.563 79H602.908V338H484.563V79Z" fill="#EEEEEE"/>
<path d="M611.126 121.422H729.471V338H611.126V121.422Z" fill="#EEEEEE"/>
<path d="M737.69 93.8851H856.034V338H737.69V93.8851Z" fill="#EEEEEE"/>
<path fill-rule="evenodd" clip-rule="evenodd" d="M90.9235 242.008C130.497 206.646 180.007 186.923 240.737 199.01C266.898 204.216 305.719 219.456 352.044 237.642C359.43 240.542 367.006 243.516 374.752 246.536C431.117 268.514 496.534 292.963 563.082 308.902C696.211 340.789 833.622 338.572 912.218 214.732L913.138 215.045C907.243 280.486 878.828 327.211 837.677 359.238C796.541 391.255 742.71 408.562 686 415.251C629.286 421.94 569.658 418.013 516.89 407.528C464.13 397.045 418.187 379.998 388.862 360.416C330.422 321.391 270.72 299.477 207.073 300.635C143.426 301.793 75.7724 326.025 1.43149 379.406L0 380.434L0.678385 378.807C21.7306 328.333 51.3669 277.356 90.9235 242.008ZM2.28207 377.567C76.1772 324.818 143.563 300.79 207.055 299.635C270.959 298.472 330.858 320.48 389.418 359.584C418.593 379.066 464.396 396.078 517.085 406.547C569.766 417.015 629.288 420.933 685.883 414.258C742.482 407.582 796.118 390.317 837.063 358.449C877.562 326.928 905.675 281.099 911.949 217.008C832.801 339.714 695.43 341.63 562.849 309.875C496.229 293.918 430.758 269.448 374.389 247.468C366.637 244.445 359.058 241.47 351.672 238.571C305.327 220.378 266.607 205.178 240.542 199.99C180.174 187.976 130.973 207.561 91.5898 242.754C52.6134 277.583 23.2619 327.695 2.28207 377.567Z" fill="#E59D2C"/>
<path d="M207.055 299.635C143.563 300.79 76.1772 324.818 2.28207 377.567C23.2619 327.695 52.6134 277.583 91.5898 242.754C130.973 207.561 180.174 187.976 240.542 199.99C266.607 205.178 305.327 220.378 351.672 238.571C359.058 241.47 366.637 244.445 374.389 247.468C430.758 269.448 496.229 293.918 562.849 309.875C695.43 341.63 832.801 339.714 911.949 217.008C905.675 281.099 877.562 326.928 837.063 358.449C796.118 390.317 742.482 407.582 685.883 414.258C629.288 420.933 569.766 417.015 517.085 406.547C464.396 396.078 418.593 379.066 389.418 359.584C330.858 320.48 270.959 298.472 207.055 299.635Z" fill="#E59D2C"/>
</svg>
